@startuml

[*] -> Running

state Running{

    [*] -> StartState
    state Fork1 <<fork>>
    state Fork2 <<fork>>
    StartState -> Fork1
    Fork1 -> State1
    State1 -> State2 : acquire semaphore 1
    State2 : Do work for 2-4 seconds
    State2 -> State3 : Sleep for 4 seconds, Release semaphore1
    State3 -> Fork2

    StartState -> Fork1
    Fork1 -> State4
    State4 -> State5 : acquire semaphore 1 and 2
    State5 : Do work for 3-6 seconds
    State5 -> State6 : Sleep for 3 seconds, Release semaphore1 and 2
    State6 -> State10

    StartState -> Fork1
    Fork1 -> State7
    State7 -> State8 : acquire semaphore 2
    State8 : Do work for 2-5 seconds
    State8 -> State9 : Sleep for 5 seconds, Release semaphore1
    State9 -> Fork2

    Fork2 -> StartState
}

Running -> [*]

@enduml