@startuml

scale 400 width

[*] --> NotShooting

state NotShooting {
  [*] --> Idle
  Idle --> Configuring : EvConfig
  Configuring --> Idle : EvConfig
}

state Configuring {
  [*] --> NewValueSelection
  NewValueSelection --> NewValuePreview : EvNewValue
  NewValuePreview --> NewValueSelection : EvNewValueRejected
  NewValuePreview --> NewValueSelection : EvNewValueSaved

  state NewValuePreview {
    [*] --> State2 : Event
  }
}

state ProducerState {
  [*] --> Running
  Running --> Stopped : EvStop
  Stopped --> Running : EvStart
}

state ConsumerState {
  [*] --> Running
  Running --> Stopped : EvStop
  Stopped --> Running : EvStart
}

[*] --> ProducerState
[*] --> ConsumerState

@enduml
